<svg width="1024" height="1024" viewBox="0 0 1024 1024" fill="none" xmlns="http://www.w3.org/2000/svg">
  <rect width="1024" height="1024" rx="200" fill="#FFFFFF"/>
  <g transform="translate(212, 212) scale(15)">
    <path d="M20 2L32.7279 7.27208L38 20L32.7279 32.7279L20 38L7.27208 32.7279L2 20L7.27208 7.27208L20 2Z" stroke="#0F4D3E" stroke-width="2.5" fill="none"/>
    <path d="M22 12C19.5 12 17.5 14 17.5 16.5C17.5 19 19.5 21 22 21C23.5 21 24.8 20.3 25.6 19.2C24.5 19.6 23.3 19.6 22.3 19C21 18.2 20.7 16.3 21.3 15C21.6 14.3 22.3 14 23 14C22.7 12.7 21.5 12 22 12" fill="#D4AF37"/>
    <path d="M12 20L17 25L28 14" stroke="#0F4D3E" stroke-width="3" stroke-linecap="round" stroke-linejoin="round"/>
  </g>
</svg>
