<svg width="800" height="1200" viewBox="0 0 800 1200" fill="none" xmlns="http://www.w3.org/2000/svg">
  <rect width="800" height="1200" fill="#F8FAFC"/>
  <text x="40" y="60" font-family="Inter, sans-serif" font-weight="700" font-size="32" fill="#0F4D3E">Sidqly Brand Guide</text>

  <!-- Colors -->
  <text x="40" y="120" font-family="Inter, sans-serif" font-weight="700" font-size="24" fill="#0B1D2A">Color Palette</text>
  <rect x="40" y="140" width="100" height="100" rx="8" fill="#0F4D3E"/>
  <text x="40" y="260" font-family="Inter, sans-serif" font-size="12" fill="#475569">Deep Green</text>
  <text x="40" y="275" font-family="Inter, sans-serif" font-size="12" fill="#475569">#0F4D3E</text>

  <rect x="160" y="140" width="100" height="100" rx="8" fill="#15803D"/>
  <text x="160" y="260" font-family="Inter, sans-serif" font-size="12" fill="#475569">Emerald</text>
  <text x="160" y="275" font-family="Inter, sans-serif" font-size="12" fill="#475569">#15803D</text>

  <rect x="280" y="140" width="100" height="100" rx="8" fill="#D4AF37"/>
  <text x="280" y="260" font-family="Inter, sans-serif" font-size="12" fill="#475569">Gold Accent</text>
  <text x="280" y="275" font-family="Inter, sans-serif" font-size="12" fill="#475569">#D4AF37</text>

  <rect x="400" y="140" width="100" height="100" rx="8" fill="#0B1D2A"/>
  <text x="400" y="260" font-family="Inter, sans-serif" font-size="12" fill="#475569">Deep Navy</text>
  <text x="400" y="275" font-family="Inter, sans-serif" font-size="12" fill="#475569">#0B1D2A</text>

  <!-- Typography -->
  <text x="40" y="350" font-family="Inter, sans-serif" font-weight="700" font-size="24" fill="#0B1D2A">Typography</text>
  <text x="40" y="390" font-family="Inter, sans-serif" font-weight="700" font-size="40" fill="#0B1D2A">Inter Bold</text>
  <text x="40" y="430" font-family="Inter, sans-serif" font-weight="400" font-size="24" fill="#475569">Inter Regular</text>

  <!-- Logo -->
  <text x="40" y="520" font-family="Inter, sans-serif" font-weight="700" font-size="24" fill="#0B1D2A">Logo System</text>
  <g transform="translate(40, 550)">
    <path d="M20 2L32.7279 7.27208L38 20L32.7279 32.7279L20 38L7.27208 32.7279L2 20L7.27208 7.27208L20 2Z" stroke="#0F4D3E" stroke-width="2.5" fill="none"/>
    <path d="M22 12C19.5 12 17.5 14 17.5 16.5C17.5 19 19.5 21 22 21C23.5 21 24.8 20.3 25.6 19.2C24.5 19.6 23.3 19.6 22.3 19C21 18.2 20.7 16.3 21.3 15C21.6 14.3 22.3 14 23 14C22.7 12.7 21.5 12 22 12" fill="#D4AF37"/>
    <path d="M12 20L17 25L28 14" stroke="#0F4D3E" stroke-width="3" stroke-linecap="round" stroke-linejoin="round"/>
    <text x="50" y="32" font-family="Inter, sans-serif" font-weight="700" font-size="32" fill="#0F4D3E">Sidqly</text>
  </g>
</svg>
